<?xml version="1.0" encoding="UTF-8" standalone="no"?><!DOCTYPE svg PUBLIC "-//W3C//DTD SVG 1.1//EN" "http://www.w3.org/Graphics/SVG/1.1/DTD/svg11.dtd"><svg width="100%" height="100%" viewBox="0 0 480 121" version="1.1" xmlns="http://www.w3.org/2000/svg" xmlns:xlink="http://www.w3.org/1999/xlink" xml:space="preserve" xmlns:serif="http://www.serif.com/" style="fill-rule:evenodd;clip-rule:evenodd;stroke-linejoin:round;stroke-miterlimit:2;"><g><path d="M76.037,74.146l0,42.047l-35.347,0l0,-42.047l-40.69,-74.146l40.494,-0l18.532,35.529c6.226,-11.516 12.403,-24.356 18.237,-35.529l38.778,-0l-40.004,74.146Z" style="fill:#fff;fill-rule:nonzero;"/><path d="M186.637,116.193l-33.141,-54.249l0,54.249l-33.484,0l0,-116.193l30.199,0l33.141,53.368l0,-53.368l33.288,0l0,116.193l-30.003,0Z" style="fill:#fff;fill-rule:nonzero;"/><path d="M300.766,95.562l-34.17,-0l-6.864,20.582l-37.749,0l42.554,-116.144l40.69,0l41.524,116.193l-39.318,0l-6.667,-20.631Zm-16.962,-53.172l-8.923,26.61l17.845,0l-8.922,-26.61Z" style="fill:#fff;fill-rule:nonzero;"/><path d="M399.355,116.193l-47.358,0l-0,-116.193l44.956,0c26.618,0 42.064,11.32 42.064,31.903c-0,10.291 -5.346,18.72 -14.071,25.042c9.117,5.146 14.754,15.437 14.754,25.924c-0.046,21.465 -15.146,33.324 -40.345,33.324Zm-5.001,-89.093l-8.579,0l-0,18.868l9.118,-0c4.462,-0 8.432,-3.627 8.432,-9.949c-0.048,-4.949 -3.284,-8.919 -8.971,-8.919Zm-0.686,42.734l-7.893,-0l-0,19.406l7.402,-0c7.403,-0 11.325,-3.626 11.325,-9.458c0,-6.175 -3.088,-9.948 -10.834,-9.948Z" style="fill:#fff;fill-rule:nonzero;"/></g><path d="M440.733,98.845c0,-10.634 8.579,-19.21 19.217,-19.21c10.637,0 19.217,8.576 19.217,19.21c-0,10.635 -8.579,19.21 -19.217,19.21c-10.637,0 -19.217,-8.575 -19.217,-19.21Z" style="fill:#fff;fill-rule:nonzero;"/></svg>